<svg width="300" height="300" viewBox="0 0 300 300" fill="none" xmlns="http://www.w3.org/2000/svg">
<path d="M100 148C100 125.373 100 114.059 107.029 107.029C114.059 100 125.373 100 148 100H152C174.627 100 185.941 100 192.971 107.029C200 114.059 200 125.373 200 148V152C200 174.627 200 185.941 192.971 192.971C185.941 200 174.627 200 152 200H148C125.373 200 114.059 200 107.029 192.971C100 185.941 100 174.627 100 152V148Z" fill="#0077FF"/>
<path d="M153.208 172.042C130.417 172.042 117.417 156.417 116.875 130.417H128.292C128.667 149.5 137.083 157.583 143.75 159.25V130.417H154.5V146.875C161.084 146.167 168 138.667 170.333 130.417H181.083C179.292 140.584 171.792 148.083 166.458 151.167C171.792 153.667 180.334 160.208 183.584 172.042H171.75C169.208 164.125 162.875 158 154.5 157.167V172.042H153.208Z" fill="white"/>
</svg>
